# xmcd
#
# Track frame offsets:
#	150
#	15666
#	26304
#	41893
#	57354
#	69410
#	88913
#	103236
#	120071
#	133181
#	147259
#	160924
#	174892
#	188363
#	203217
#	217546
#	230766
#	245046
#	257373
#	270062
#
# Disc length: 3797 seconds
#
# Revision: 0
# Processed by: cddbd v1.5.1PL0 Copyright (c) Steve Scherf et al.
# Submitted via: EasyCDDAExtractor 8.0.0.2
#
DISCID=070ed314
DTITLE=Jamppa Tuominen - Elämäni Parhainta Aikaa
DYEAR=2005
DGENRE=Dance
TTITLE0=Elämäni Parhainta Aikaa
TTITLE1=Kukkivat RRuusut Kerran
TTITLE2=Kuumat Kyyneleet
TTITLE3=Taas Kutsuu Tie
TTITLE4=Yön Hiljaisuudessa
TTITLE5=Meren Rannalla
TTITLE6=Onnenpoika
TTITLE7=Aamu Toi Ilta Vei
TTITLE8=Vesipisaroiden Laulu
TTITLE9=Kevään Ensi Kukkanen
TTITLE10=Mökki Vailla Akkaa
TTITLE11=Toivotaan, Toivotaan
TTITLE12=Löysitkö Onnen Tien
TTITLE13=Yritetään Yhdessä Vielä
TTITLE14=Asfalttikukka
TTITLE15=Silmät Kuin Enkelillä
TTITLE16=Yön Syliin
TTITLE17=Kaunis On Kanssasi Kaipuu
TTITLE18=Pikku Merja
TTITLE19=Elämäni Parhainta Aikaa
EXTD=
EXTT0=
EXTT1=
EXTT2=
EXTT3=
EXTT4=
EXTT5=
EXTT6=
EXTT7=
EXTT8=
EXTT9=
EXTT10=
EXTT11=
EXTT12=
EXTT13=
EXTT14=
EXTT15=
EXTT16=
EXTT17=
EXTT18=
EXTT19=
PLAYORDER=
